<svg viewBox="0 0 213 29" fill="none" xmlns="http://www.w3.org/2000/svg">
<path d="M0.0361328 22.5V1.17188H5.26562L10.4951 15.5127C10.6123 15.835 10.7148 16.1523 10.8027 16.4648C10.8906 16.7676 10.9688 17.0947 11.0371 17.4463H11.125C11.1934 17.0947 11.2715 16.7676 11.3594 16.4648C11.457 16.1523 11.5645 15.835 11.6816 15.5127L16.9111 1.17188H22.1846V22.5H18.2881V8.37891C18.2881 8.05664 18.293 7.7002 18.3027 7.30957C18.3125 6.91895 18.332 6.5625 18.3613 6.24023H18.2588C18.21 6.5625 18.1318 6.91895 18.0244 7.30957C17.917 7.7002 17.8096 8.05664 17.7021 8.37891L12.6191 22.5H9.20605L4.12305 8.37891C4.00586 8.05664 3.89355 7.68555 3.78613 7.26562C3.67871 6.8457 3.60547 6.50391 3.56641 6.24023H3.46387C3.4834 6.50391 3.49805 6.8457 3.50781 7.26562C3.52734 7.68555 3.53711 8.05664 3.53711 8.37891V22.5H0.0361328ZM25.0996 28.5791L25.1143 25.7666C25.3877 25.8447 25.6758 25.9033 25.9785 25.9424C26.291 25.9912 26.5889 26.0156 26.8721 26.0156C27.5459 26.0156 28.127 25.7715 28.6152 25.2832C29.1035 24.7949 29.5625 23.8623 29.9922 22.4854L29.9189 22.4707L24.2354 7.79297H28.0439L31.208 16.7139C31.3252 17.0557 31.4229 17.3682 31.501 17.6514C31.5791 17.9346 31.6523 18.2178 31.7207 18.501H31.8086C31.877 18.2178 31.9502 17.9346 32.0283 17.6514C32.1064 17.3682 32.2041 17.0508 32.3213 16.6992L35.4268 7.79297H38.9131L32.8779 24.0527C32.2529 25.7129 31.501 26.9336 30.6221 27.7148C29.7432 28.4961 28.6396 28.8867 27.3115 28.8867C26.8135 28.8867 26.3936 28.8623 26.0518 28.8135C25.71 28.7646 25.3926 28.6865 25.0996 28.5791ZM39.2354 16.1133V15.6738H43.0146V16.2598C43.0146 17.5293 43.2686 18.4521 43.7764 19.0283C44.2939 19.6045 45.0508 19.8926 46.0469 19.8926C47.0137 19.8926 47.7607 19.585 48.2881 18.9697C48.8154 18.3447 49.0791 17.3291 49.0791 15.9229V1.17188H53.0342V15.6152C53.0342 17.9297 52.4287 19.7217 51.2178 20.9912C50.0068 22.251 48.3125 22.8809 46.1348 22.8809C43.9863 22.8809 42.2969 22.3145 41.0664 21.1816C39.8457 20.0488 39.2354 18.3594 39.2354 16.1133ZM55.9785 16.626V16.0107H59.8604V16.4941C59.8604 17.6465 60.207 18.5059 60.9004 19.0723C61.5938 19.6387 62.5654 19.9219 63.8154 19.9219C65.0557 19.9219 66.0078 19.6484 66.6719 19.1016C67.3359 18.5547 67.668 17.832 67.668 16.9336C67.668 16.0645 67.3408 15.3809 66.6865 14.8828C66.042 14.375 64.7432 13.833 62.79 13.2568C60.5928 12.6123 58.9668 11.8018 57.9121 10.8252C56.8574 9.84863 56.3252 8.50098 56.3154 6.78223C56.3154 4.98535 56.9746 3.54004 58.293 2.44629C59.6211 1.34277 61.418 0.791016 63.6836 0.791016C65.9395 0.791016 67.7461 1.34277 69.1035 2.44629C70.4609 3.54004 71.1396 5.02441 71.1396 6.89941V7.41211H67.3164V7.0166C67.3164 6.03027 67.0088 5.24414 66.3936 4.6582C65.7881 4.07227 64.8945 3.7793 63.7129 3.7793C62.5117 3.7793 61.6279 4.02832 61.0615 4.52637C60.5049 5.01465 60.2266 5.67871 60.2266 6.51855C60.2266 7.30957 60.5391 7.92969 61.1641 8.37891C61.7988 8.82812 63.1074 9.3457 65.0898 9.93164C67.248 10.5664 68.8643 11.3965 69.9385 12.4219C71.0225 13.4375 71.5645 14.8535 71.5645 16.6699C71.5645 18.584 70.8613 20.0977 69.4551 21.2109C68.0488 22.3242 66.1787 22.8809 63.8447 22.8809C61.5107 22.8809 59.6162 22.3438 58.1611 21.2695C56.7061 20.1953 55.9785 18.6475 55.9785 16.626ZM84.8799 22.5879L79.8262 1.17188H83.7373L87.0479 16.0107C87.1064 16.2939 87.1504 16.5381 87.1797 16.7432C87.2188 16.9482 87.2529 17.207 87.2822 17.5195H87.3994C87.4385 17.207 87.4727 16.9482 87.502 16.7432C87.541 16.5381 87.5898 16.2939 87.6484 16.0107L91.2666 1.17188H95.3389L99.0449 16.0107C99.1133 16.2842 99.1621 16.5283 99.1914 16.7432C99.2305 16.9482 99.2646 17.207 99.2939 17.5195H99.4111C99.4404 17.1973 99.4697 16.9336 99.499 16.7285C99.5381 16.5234 99.5869 16.2842 99.6455 16.0107L102.854 1.17188H106.428L101.418 22.5879H97.2578L93.4932 7.67578C93.4248 7.41211 93.3662 7.14844 93.3174 6.88477C93.2686 6.62109 93.2246 6.33789 93.1855 6.03516H93.083C93.0439 6.33789 93 6.62109 92.9512 6.88477C92.9023 7.14844 92.8486 7.41211 92.79 7.67578L89.0107 22.5879H84.8799ZM107.204 15.3662V14.8975C107.204 12.6416 107.873 10.8252 109.211 9.44824C110.549 8.07129 112.297 7.38281 114.455 7.38281C116.604 7.38281 118.269 8.03223 119.45 9.33105C120.642 10.6201 121.237 12.3975 121.237 14.6631V15.9668H109.562V13.5938H117.473V13.3447C117.473 12.4658 117.219 11.7188 116.711 11.1035C116.203 10.4883 115.451 10.1807 114.455 10.1807C113.332 10.1807 112.482 10.6006 111.906 11.4404C111.33 12.2705 111.042 13.3447 111.042 14.6631V15.4688C111.042 16.8457 111.35 17.9541 111.965 18.7939C112.58 19.6338 113.498 20.0537 114.719 20.0537C115.539 20.0537 116.242 19.8682 116.828 19.4971C117.414 19.126 117.883 18.6768 118.234 18.1494L121.062 19.6729C120.603 20.5908 119.836 21.3574 118.762 21.9727C117.697 22.5879 116.364 22.8955 114.763 22.8955C112.37 22.8955 110.51 22.2119 109.182 20.8447C107.863 19.4678 107.204 17.6416 107.204 15.3662ZM123.845 22.5V0.454102H127.668V9.46289C128.137 8.84766 128.732 8.36426 129.455 8.0127C130.188 7.65137 131.047 7.4707 132.033 7.4707C133.908 7.4707 135.397 8.15918 136.501 9.53613C137.614 10.9131 138.171 12.6855 138.171 14.8535V15.3223C138.171 17.4902 137.609 19.2773 136.486 20.6836C135.373 22.0898 133.879 22.793 132.004 22.793C131.018 22.793 130.129 22.6025 129.338 22.2217C128.557 21.8408 127.98 21.3525 127.609 20.7568H127.551L127.492 22.5H123.845ZM127.668 17.7246C127.922 18.3008 128.317 18.8135 128.854 19.2627C129.401 19.7021 130.1 19.9219 130.949 19.9219C132.072 19.9219 132.907 19.4971 133.454 18.6475C134.001 17.7979 134.274 16.7139 134.274 15.3955V14.7949C134.274 13.4863 134.001 12.4219 133.454 11.6016C132.907 10.7812 132.053 10.3711 130.891 10.3711C130.09 10.3711 129.411 10.5957 128.854 11.0449C128.308 11.4844 127.912 11.9873 127.668 12.5537V17.7246ZM148.161 22.5V1.17188H154.929C157.702 1.17188 159.963 2.06055 161.711 3.83789C163.459 5.60547 164.333 8.05664 164.333 11.1914V12.4658C164.333 15.5908 163.459 18.0469 161.711 19.834C159.973 21.6113 157.712 22.5 154.929 22.5H148.161ZM152.072 19.541H154.782C156.481 19.541 157.829 18.9551 158.825 17.7832C159.821 16.6113 160.319 14.9121 160.319 12.6855V11.001C160.319 8.76465 159.812 7.07031 158.796 5.91797C157.79 4.75586 156.452 4.1748 154.782 4.1748H152.072V19.541ZM166.618 15.3662V14.8975C166.618 12.6318 167.307 10.8105 168.684 9.43359C170.061 8.05664 171.877 7.36816 174.133 7.36816C176.389 7.36816 178.2 8.05664 179.567 9.43359C180.944 10.8105 181.633 12.6318 181.633 14.8975V15.3662C181.633 17.6416 180.944 19.4678 179.567 20.8447C178.2 22.2119 176.389 22.8955 174.133 22.8955C171.877 22.8955 170.061 22.2119 168.684 20.8447C167.307 19.4678 166.618 17.6416 166.618 15.3662ZM170.529 14.751V15.498C170.529 16.875 170.837 17.9736 171.452 18.7939C172.067 19.6045 172.956 20.0098 174.118 20.0098C175.29 20.0098 176.184 19.6045 176.799 18.7939C177.414 17.9736 177.722 16.875 177.722 15.498V14.751C177.722 13.3936 177.409 12.3096 176.784 11.499C176.169 10.6885 175.28 10.2832 174.118 10.2832C172.966 10.2832 172.077 10.6885 171.452 11.499C170.837 12.3096 170.529 13.3936 170.529 14.751ZM183.552 15.3662V14.8975C183.552 12.5928 184.211 10.7617 185.529 9.4043C186.857 8.04688 188.64 7.36816 190.876 7.36816C193.024 7.36816 194.66 7.89062 195.783 8.93555C196.906 9.98047 197.497 11.2793 197.556 12.832V13.0664H193.835V12.9053C193.835 12.1338 193.591 11.499 193.103 11.001C192.624 10.5029 191.892 10.2539 190.905 10.2539C189.772 10.2539 188.913 10.6592 188.327 11.4697C187.751 12.2803 187.463 13.374 187.463 14.751V15.5127C187.463 16.8701 187.746 17.9639 188.312 18.7939C188.879 19.624 189.743 20.0391 190.905 20.0391C191.931 20.0391 192.673 19.7852 193.132 19.2773C193.601 18.7598 193.84 18.1201 193.85 17.3584V17.2119H197.556V17.4023C197.546 18.9453 196.965 20.249 195.812 21.3135C194.67 22.3682 193.029 22.8955 190.891 22.8955C188.654 22.8955 186.872 22.2168 185.544 20.8594C184.216 19.4922 183.552 17.6611 183.552 15.3662ZM199.299 17.9004L202.946 17.9297V18.1494C202.946 18.9209 203.205 19.4775 203.723 19.8193C204.24 20.1611 204.938 20.332 205.817 20.332C206.687 20.332 207.351 20.1758 207.81 19.8633C208.278 19.541 208.513 19.0967 208.513 18.5303C208.513 17.9639 208.278 17.5439 207.81 17.2705C207.341 16.9873 206.345 16.6797 204.821 16.3477C203.093 15.9766 201.804 15.4346 200.954 14.7217C200.114 13.999 199.694 13.0273 199.694 11.8066C199.694 10.4395 200.241 9.36035 201.335 8.56934C202.438 7.76855 203.938 7.36816 205.832 7.36816C207.707 7.36816 209.201 7.77832 210.314 8.59863C211.428 9.41895 211.984 10.5518 211.984 11.9971V12.1875H208.352V11.9531C208.352 11.2988 208.137 10.8057 207.707 10.4736C207.277 10.1416 206.638 9.97559 205.788 9.97559C204.968 9.97559 204.367 10.1172 203.986 10.4004C203.605 10.6836 203.415 11.0693 203.415 11.5576C203.415 12.0264 203.654 12.4023 204.133 12.6855C204.611 12.959 205.612 13.2617 207.136 13.5938C208.884 13.9551 210.183 14.4922 211.032 15.2051C211.882 15.9082 212.307 16.8945 212.307 18.1641C212.307 19.6484 211.76 20.8105 210.666 21.6504C209.582 22.4805 207.98 22.8955 205.861 22.8955C203.762 22.8955 202.146 22.4756 201.013 21.6357C199.89 20.7959 199.318 19.6143 199.299 18.0908V17.9004Z" fill="#231F20"/>
</svg>
