<svg viewBox="0 0 370 111" fill="none" xmlns="http://www.w3.org/2000/svg">
<path class="part-1" d="M196.376 74.0879L191.322 52.6719H195.233L198.544 67.5107C198.603 67.7939 198.646 68.0381 198.676 68.2432C198.715 68.4482 198.749 68.707 198.778 69.0195H198.896C198.935 68.707 198.969 68.4482 198.998 68.2432C199.037 68.0381 199.086 67.7939 199.145 67.5107L202.763 52.6719H206.835L210.541 67.5107C210.609 67.7842 210.658 68.0283 210.688 68.2432C210.727 68.4482 210.761 68.707 210.79 69.0195H210.907C210.937 68.6973 210.966 68.4336 210.995 68.2285C211.034 68.0234 211.083 67.7842 211.142 67.5107L214.35 52.6719H217.924L212.914 74.0879H208.754L204.989 59.1758C204.921 58.9121 204.862 58.6484 204.813 58.3848C204.765 58.1211 204.721 57.8379 204.682 57.5352H204.579C204.54 57.8379 204.496 58.1211 204.447 58.3848C204.398 58.6484 204.345 58.9121 204.286 59.1758L200.507 74.0879H196.376ZM222.082 74V52.6719H235.632V55.792H225.964V61.5635H234.284V64.5371H225.964V70.9238H235.793V74H222.082ZM240.347 74V52.6719H247.979C250.157 52.6719 251.841 53.1309 253.033 54.0488C254.224 54.957 254.82 56.3486 254.82 58.2236C254.82 59.415 254.551 60.3965 254.014 61.168C253.477 61.9395 252.798 62.4668 251.978 62.75V62.8086C252.984 63.0918 253.814 63.6631 254.468 64.5225C255.122 65.3818 255.45 66.5244 255.45 67.9502C255.45 69.8643 254.81 71.3535 253.531 72.418C252.251 73.4727 250.537 74 248.389 74H240.347ZM244.229 71.1582H248.023C249.214 71.1582 250.088 70.8506 250.645 70.2354C251.211 69.6104 251.495 68.7705 251.495 67.7158C251.495 66.6709 251.211 65.8359 250.645 65.2109C250.088 64.5859 249.214 64.2734 248.023 64.2734H244.229V71.1582ZM244.229 61.6953H247.627C248.809 61.6953 249.659 61.4219 250.176 60.875C250.704 60.3281 250.967 59.5664 250.967 58.5898C250.967 57.6133 250.704 56.8662 250.176 56.3486C249.659 55.8311 248.809 55.5723 247.627 55.5723H244.229V61.6953Z" fill="#F2E4D7"/>
<path class="part-2" d="M4.14062 74V17.125H18.8672L31.6797 54.4688C31.9661 55.3542 32.2266 56.2266 32.4609 57.0859C32.7214 57.9453 32.9427 58.8568 33.125 59.8203H33.2812C33.4635 58.8568 33.6719 57.9453 33.9062 57.0859C34.1667 56.2266 34.4401 55.3542 34.7266 54.4688L47.4609 17.125H62.3047V74H51.7969V36.7344C51.7969 35.849 51.7969 34.8594 51.7969 33.7656C51.8229 32.6719 51.875 31.6953 51.9531 30.8359H51.7188C51.5625 31.7474 51.3411 32.737 51.0547 33.8047C50.7682 34.8464 50.4948 35.8229 50.2344 36.7344L37.8125 74H28.125L15.625 36.7344C15.3385 35.849 15.0391 34.7812 14.7266 33.5312C14.4141 32.2552 14.2318 31.3568 14.1797 30.8359H13.9844C13.9844 31.3307 14.0104 32.2161 14.0625 33.4922C14.1146 34.7682 14.1406 35.849 14.1406 36.7344V74H4.14062ZM67.4219 90.1719V83.1406C68.2552 83.349 69.0885 83.4922 69.9219 83.5703C70.7552 83.6745 71.5625 83.7266 72.3438 83.7266C74.1667 83.7266 75.7161 82.9844 76.9922 81.5C78.2682 80.0417 79.4792 77.5938 80.625 74.1562L80.5859 74.1172L66.2891 37.7891H76.4844L84.2578 59.7422C84.5443 60.5495 84.7786 61.2526 84.9609 61.8516C85.1693 62.4245 85.3646 63.0234 85.5469 63.6484H85.7031C85.8594 63.0234 86.0286 62.4115 86.2109 61.8125C86.4193 61.2135 86.6797 60.4974 86.9922 59.6641L95.1172 37.7891H104.492L89.5312 76.6562C87.474 81.9688 85.3255 85.6927 83.0859 87.8281C80.8464 89.9635 77.8906 91.0312 74.2188 91.0312C72.6302 91.0312 71.3151 90.9531 70.2734 90.7969C69.2578 90.6667 68.3073 90.4583 67.4219 90.1719ZM105.273 56.7734V54.5859H114.961V57.4766C114.961 60.7578 115.534 63.2057 116.68 64.8203C117.826 66.4089 119.648 67.2031 122.148 67.2031C124.44 67.2031 126.211 66.3828 127.461 64.7422C128.711 63.0755 129.336 60.3021 129.336 56.4219V17.125H140V55.4453C140 61.6432 138.555 66.4219 135.664 69.7812C132.799 73.1406 128.464 74.8203 122.656 74.8203C117.005 74.8203 112.695 73.3359 109.727 70.3672C106.758 67.3724 105.273 62.8411 105.273 56.7734ZM146.289 58.8047V55.9141H156.172V58.0625C156.146 61.2135 156.966 63.5573 158.633 65.0938C160.326 66.6302 162.682 67.3984 165.703 67.3984C168.646 67.3984 170.911 66.6693 172.5 65.2109C174.089 63.7526 174.883 61.7995 174.883 59.3516C174.883 57.138 174.089 55.3542 172.5 54C170.911 52.6458 167.865 51.2005 163.359 49.6641C157.76 47.737 153.646 45.4583 151.016 42.8281C148.411 40.1719 147.109 36.5781 147.109 32.0469C147.109 27.2812 148.75 23.4792 152.031 20.6406C155.312 17.776 159.766 16.3438 165.391 16.3438C170.911 16.3438 175.365 17.6849 178.75 20.3672C182.135 23.0234 183.828 26.8125 183.828 31.7344V33.9609H174.062V32.3984C174.062 29.7682 173.333 27.7109 171.875 26.2266C170.417 24.7161 168.307 23.9609 165.547 23.9609C162.604 23.9609 160.469 24.625 159.141 25.9531C157.812 27.2552 157.148 29.013 157.148 31.2266C157.148 33.2839 157.982 34.9635 159.648 36.2656C161.315 37.5417 164.466 38.9479 169.102 40.4844C174.57 42.2812 178.581 44.5729 181.133 47.3594C183.685 50.1458 184.961 53.8438 184.961 58.4531C184.961 63.5052 183.216 67.5026 179.727 70.4453C176.237 73.362 171.602 74.8203 165.82 74.8203C160.039 74.8203 155.339 73.4661 151.719 70.7578C148.099 68.0495 146.289 64.0651 146.289 58.8047Z" fill="#231F20"/>
<path class="part-3" d="M106.904 104V82.6719H114.185C116.997 82.6719 119.292 83.5508 121.069 85.3086C122.856 87.0664 123.75 89.5273 123.75 92.6914V93.9512C123.75 97.1055 122.861 99.5713 121.084 101.349C119.307 103.116 117.007 104 114.185 104H106.904ZM111.577 100.558H113.95C115.464 100.558 116.67 100.03 117.568 98.9756C118.477 97.9209 118.931 96.3584 118.931 94.2881V92.3984C118.931 90.3086 118.477 88.751 117.568 87.7256C116.66 86.6904 115.454 86.1729 113.95 86.1729H111.577V100.558ZM127.711 93.9658V92.7061C127.711 89.2197 128.57 86.6123 130.289 84.8838C132.018 83.1553 134.244 82.291 136.969 82.291C139.684 82.291 141.91 83.1553 143.648 84.8838C145.387 86.6123 146.256 89.2197 146.256 92.7061V93.9658C146.256 97.4521 145.387 100.06 143.648 101.788C141.91 103.517 139.684 104.381 136.969 104.381C134.244 104.381 132.018 103.517 130.289 101.788C128.57 100.06 127.711 97.4521 127.711 93.9658ZM132.604 94.7861C132.604 96.8955 132.994 98.4434 133.775 99.4297C134.557 100.416 135.621 100.909 136.969 100.909C138.307 100.909 139.371 100.416 140.162 99.4297C140.963 98.4434 141.363 96.8955 141.363 94.7861V91.9004C141.363 89.791 140.963 88.248 140.162 87.2715C139.371 86.2852 138.307 85.792 136.969 85.792C135.621 85.792 134.557 86.2852 133.775 87.2715C132.994 88.248 132.604 89.791 132.604 91.9004V94.7861ZM150.217 93.9658V92.7061C150.217 89.1904 151.066 86.5781 152.766 84.8691C154.475 83.1504 156.701 82.291 159.445 82.291C162.062 82.291 164.118 82.9551 165.612 84.2832C167.116 85.6016 167.868 87.4033 167.868 89.6885V90.3916H163.21V89.4688C163.21 88.2871 162.897 87.3789 162.272 86.7441C161.647 86.1094 160.705 85.792 159.445 85.792C158.137 85.792 157.092 86.2656 156.311 87.2129C155.539 88.1602 155.153 89.7031 155.153 91.8418V94.8301C155.153 96.8613 155.539 98.3848 156.311 99.4004C157.082 100.406 158.146 100.909 159.504 100.909C160.715 100.909 161.623 100.572 162.229 99.8984C162.834 99.2246 163.156 98.2773 163.195 97.0566L163.21 96.3096H167.868V97.1445C167.81 99.3027 167.043 101.051 165.568 102.389C164.104 103.717 162.058 104.381 159.431 104.381C156.638 104.381 154.401 103.512 152.722 101.773C151.052 100.035 150.217 97.4326 150.217 93.9658ZM171.858 96.1924V82.6719H176.59V96.6172C176.59 98.1895 176.902 99.2979 177.527 99.9424C178.152 100.577 178.992 100.895 180.047 100.895C181.102 100.895 181.941 100.577 182.566 99.9424C183.191 99.2979 183.504 98.1895 183.504 96.6172V82.6719H188.177V96.1924C188.177 99.0049 187.42 101.075 185.906 102.403C184.393 103.722 182.439 104.381 180.047 104.381C177.625 104.381 175.652 103.722 174.129 102.403C172.615 101.075 171.858 99.0049 171.858 96.1924ZM193.324 104V82.6719H199.623L204.325 95.8994C204.433 96.2314 204.53 96.5488 204.618 96.8516C204.706 97.1543 204.779 97.4863 204.838 97.8477H204.926C204.984 97.4863 205.058 97.1543 205.146 96.8516C205.233 96.5488 205.336 96.2314 205.453 95.8994L210.155 82.6719H216.513V104H211.825V90.8018C211.825 90.4697 211.83 90.1035 211.84 89.7031C211.85 89.3027 211.874 88.9365 211.913 88.6045H211.796C211.747 88.9463 211.674 89.3174 211.576 89.7178C211.479 90.1084 211.376 90.4697 211.269 90.8018L206.669 104H202.611L198.012 90.8018C197.904 90.4697 197.802 90.0938 197.704 89.6738C197.606 89.2539 197.533 88.8975 197.484 88.6045H197.382C197.411 88.8975 197.431 89.2539 197.44 89.6738C197.46 90.0938 197.47 90.4697 197.47 90.8018V104H193.324ZM221.836 104V82.6719H235.972V86.3486H226.479V91.3584H234.653V94.8154H226.479V100.396H236.147V104H221.836ZM240.211 104V82.6719H245.147L251.974 95.3281C252.13 95.6309 252.267 95.9336 252.384 96.2363C252.511 96.5293 252.623 96.8271 252.721 97.1299H252.823C252.804 96.8076 252.794 96.4902 252.794 96.1777C252.794 95.8555 252.794 95.5283 252.794 95.1963V82.6719H256.866V104H251.915L245.074 91.373C244.918 91.0801 244.781 90.7822 244.664 90.4795C244.547 90.1768 244.439 89.874 244.342 89.5713H244.239C244.259 89.9033 244.269 90.2305 244.269 90.5527C244.278 90.875 244.283 91.2021 244.283 91.5342V104H240.211ZM260.402 86.3486V82.6719H277.307V86.3486H271.242V104H266.467V86.3486H260.402ZM277.474 104L285.062 82.6133H290.174L297.791 104H292.869L287.903 89.1611C287.786 88.8096 287.688 88.4824 287.61 88.1797C287.542 87.877 287.479 87.5938 287.42 87.3301H287.332C287.273 87.5938 287.205 87.877 287.127 88.1797C287.059 88.4824 286.966 88.8096 286.849 89.1611L281.956 104H277.474ZM281.795 99.4736L282.703 96.1191H292.269L293.206 99.4736H281.795ZM297.504 86.3486V82.6719H314.408V86.3486H308.344V104H303.568V86.3486H297.504ZM318.076 104V82.6719H322.852V104H318.076ZM327.486 93.9658V92.7061C327.486 89.2197 328.346 86.6123 330.064 84.8838C331.793 83.1553 334.02 82.291 336.744 82.291C339.459 82.291 341.686 83.1553 343.424 84.8838C345.162 86.6123 346.031 89.2197 346.031 92.7061V93.9658C346.031 97.4521 345.162 100.06 343.424 101.788C341.686 103.517 339.459 104.381 336.744 104.381C334.02 104.381 331.793 103.517 330.064 101.788C328.346 100.06 327.486 97.4521 327.486 93.9658ZM332.379 94.7861C332.379 96.8955 332.77 98.4434 333.551 99.4297C334.332 100.416 335.396 100.909 336.744 100.909C338.082 100.909 339.146 100.416 339.938 99.4297C340.738 98.4434 341.139 96.8955 341.139 94.7861V91.9004C341.139 89.791 340.738 88.248 339.938 87.2715C339.146 86.2852 338.082 85.792 336.744 85.792C335.396 85.792 334.332 86.2852 333.551 87.2715C332.77 88.248 332.379 89.791 332.379 91.9004V94.7861ZM350.666 104V82.6719H355.603L362.429 95.3281C362.585 95.6309 362.722 95.9336 362.839 96.2363C362.966 96.5293 363.078 96.8271 363.176 97.1299H363.278C363.259 96.8076 363.249 96.4902 363.249 96.1777C363.249 95.8555 363.249 95.5283 363.249 95.1963V82.6719H367.321V104H362.37L355.529 91.373C355.373 91.0801 355.236 90.7822 355.119 90.4795C355.002 90.1768 354.895 89.874 354.797 89.5713H354.694C354.714 89.9033 354.724 90.2305 354.724 90.5527C354.733 90.875 354.738 91.2021 354.738 91.5342V104H350.666Z" fill="#231F20"/>
</svg>
