<svg viewBox="0 0 70 70" fill="none" xmlns="http://www.w3.org/2000/svg">
<rect width="70" height="70" rx="10" fill="#DA7A19"/>
<path d="M8.96997 52.5469V17H17.9299L26.304 40.6328C26.483 41.1699 26.6458 41.707 26.7922 42.2441C26.955 42.765 27.0933 43.3184 27.2073 43.9043H27.3293C27.4433 43.3184 27.5735 42.765 27.72 42.2441C27.8827 41.707 28.0536 41.1699 28.2327 40.6328L36.5823 17H45.28V52.5469H39.0969V29.1338C39.0969 28.5967 39.0969 27.9945 39.0969 27.3271C39.1132 26.6436 39.1458 26.0332 39.1946 25.4961H39.0481C38.9504 26.0658 38.8121 26.6761 38.6331 27.3271C38.454 27.9782 38.275 28.5804 38.0959 29.1338L29.9661 52.5469H24.1067L15.9524 29.1338C15.7734 28.5804 15.5862 27.9375 15.3909 27.2051C15.2118 26.4564 15.0979 25.8867 15.0491 25.4961H14.8782C14.9107 25.8867 14.9351 26.4564 14.9514 27.2051C14.984 27.9538 15.0002 28.5967 15.0002 29.1338V52.5469H8.96997Z" fill="#231F20"/>
<path d="M39.1 41.3066V40.2568H45.2767V41.624C45.2767 43.7236 45.6674 45.2617 46.4486 46.2383C47.2461 47.2148 48.4506 47.7031 50.0619 47.7031C51.5918 47.7031 52.7719 47.1904 53.6019 46.165C54.432 45.1234 54.847 43.4062 54.847 41.0137V16.4531H61.4633V40.4766C61.4633 44.334 60.503 47.3206 58.5824 49.4365C56.6781 51.5361 53.9193 52.5859 50.306 52.5859C46.7416 52.5859 43.9828 51.6501 42.0297 49.7783C40.0765 47.8903 39.1 45.0664 39.1 41.3066Z" fill="white"/>
</svg>
