<svg width="59" height="25" viewBox="0 0 59 25" fill="none" xmlns="http://www.w3.org/2000/svg">
<rect width="59" height="25" rx="12.5" fill="#A2F6A8" fill-opacity="0.1"/>
<rect x="0.5" y="0.5" width="58" height="24" rx="12" stroke="#D1FAD3" stroke-opacity="0.5"/>
<path d="M15.9102 13.5137V13.2949C15.9102 12.2103 16.2064 11.3239 16.7988 10.6357C17.3958 9.94759 18.1842 9.60352 19.1641 9.60352C20.1439 9.60352 20.8981 9.9248 21.4268 10.5674C21.9554 11.21 22.2197 12.0781 22.2197 13.1719V13.6914H16.6895V12.6797H20.9414V12.5156C20.9414 11.9961 20.7933 11.554 20.4971 11.1895C20.2008 10.8249 19.7747 10.6426 19.2188 10.6426C18.5443 10.6426 18.0407 10.9001 17.708 11.415C17.3753 11.9255 17.209 12.5521 17.209 13.2949V13.5137C17.209 14.2565 17.3844 14.8854 17.7354 15.4004C18.0863 15.9108 18.6309 16.166 19.3691 16.166C19.8249 16.166 20.2168 16.0658 20.5449 15.8652C20.873 15.6647 21.1396 15.4277 21.3447 15.1543L22.165 15.8037C21.9372 16.1455 21.584 16.4645 21.1055 16.7607C20.6315 17.057 20.0527 17.2051 19.3691 17.2051C18.2526 17.2051 17.3958 16.861 16.7988 16.1729C16.2064 15.4847 15.9102 14.5983 15.9102 13.5137ZM23.3818 14.8809C23.3818 14.1517 23.6712 13.5843 24.25 13.1787C24.8288 12.7731 25.5648 12.5703 26.458 12.5703H28.085V12.0781C28.085 11.6452 27.9733 11.2943 27.75 11.0254C27.5267 10.752 27.1416 10.6152 26.5947 10.6152C26.0479 10.6152 25.6559 10.7292 25.4189 10.957C25.1865 11.1803 25.0703 11.4401 25.0703 11.7363V11.7705H23.8057V11.7363C23.8057 11.1667 24.0586 10.6699 24.5645 10.2461C25.0749 9.81771 25.763 9.60352 26.6289 9.60352C27.4948 9.60352 28.1647 9.81087 28.6387 10.2256C29.1172 10.6403 29.3564 11.2578 29.3564 12.0781V15.3594C29.3564 15.6556 29.3792 15.9359 29.4248 16.2002C29.4704 16.46 29.5342 16.6901 29.6162 16.8906V17H28.3857C28.3219 16.8861 28.2627 16.738 28.208 16.5557C28.1579 16.3734 28.126 16.1911 28.1123 16.0088C27.9437 16.305 27.6702 16.5671 27.292 16.7949C26.9183 17.0228 26.4352 17.1367 25.8428 17.1367C25.1592 17.1367 24.5781 16.943 24.0996 16.5557C23.6211 16.1683 23.3818 15.61 23.3818 14.8809ZM24.6533 14.8125C24.6533 15.2227 24.7718 15.5439 25.0088 15.7764C25.2458 16.0088 25.6149 16.125 26.1162 16.125C26.6175 16.125 27.071 15.9518 27.4766 15.6055C27.8822 15.2591 28.085 14.8923 28.085 14.5049V13.4727H26.5947C25.9567 13.4727 25.4736 13.5934 25.1455 13.835C24.8174 14.0765 24.6533 14.4023 24.6533 14.8125ZM30.874 14.8809H32.1455V14.915C32.1455 15.3298 32.2982 15.6419 32.6035 15.8516C32.9089 16.0612 33.3122 16.166 33.8135 16.166C34.3148 16.166 34.709 16.0658 34.9961 15.8652C35.2878 15.6647 35.4336 15.4049 35.4336 15.0859C35.4336 14.7669 35.3174 14.5231 35.085 14.3545C34.8525 14.1813 34.349 14.0036 33.5742 13.8213C32.7995 13.639 32.1842 13.3838 31.7285 13.0557C31.2728 12.723 31.0449 12.2604 31.0449 11.668C31.0449 11.0755 31.2887 10.5833 31.7764 10.1914C32.2686 9.79948 32.9248 9.60352 33.7451 9.60352C34.5654 9.60352 35.2262 9.79948 35.7275 10.1914C36.2288 10.5788 36.4795 11.1051 36.4795 11.7705V11.8047H35.2148V11.7432C35.2148 11.4014 35.0941 11.1325 34.8525 10.9365C34.6156 10.7406 34.2464 10.6426 33.7451 10.6426C33.2438 10.6426 32.877 10.7337 32.6445 10.916C32.4167 11.0983 32.3027 11.3262 32.3027 11.5996C32.3027 11.873 32.4349 12.0895 32.6992 12.249C32.9635 12.4085 33.4831 12.5794 34.2578 12.7617C35.0326 12.944 35.6296 13.2061 36.0488 13.5479C36.4727 13.8896 36.6846 14.3796 36.6846 15.0176C36.6846 15.6556 36.4453 16.1797 35.9668 16.5898C35.4883 17 34.7705 17.2051 33.8135 17.2051C32.8564 17.2051 32.1273 16.9977 31.626 16.583C31.1247 16.1637 30.874 15.6077 30.874 14.915V14.8809ZM37.5732 19.8438V18.7637C37.6917 18.8001 37.8239 18.8298 37.9697 18.8525C38.1156 18.8753 38.2568 18.8867 38.3936 18.8867C38.7126 18.8867 38.9906 18.766 39.2275 18.5244C39.4645 18.2874 39.7152 17.7702 39.9795 16.9727V16.9658L37.2998 9.80859H38.5303L40.2324 14.5391C40.2962 14.7214 40.3532 14.8923 40.4033 15.0518C40.4535 15.2113 40.4967 15.3594 40.5332 15.4961H40.5742C40.6152 15.3594 40.6608 15.2113 40.7109 15.0518C40.7656 14.8923 40.8226 14.7214 40.8818 14.5391L42.4678 9.80859H43.6709L40.752 17.957C40.5241 18.5951 40.221 19.0918 39.8428 19.4473C39.4691 19.8027 39.0088 19.9805 38.4619 19.9805C38.2796 19.9805 38.1178 19.9691 37.9766 19.9463C37.8353 19.9235 37.7008 19.8893 37.5732 19.8438Z" fill="#D1FAD3"/>
</svg>
