<svg width="70" height="25" viewBox="0 0 70 25" fill="none" xmlns="http://www.w3.org/2000/svg">
<rect width="70" height="25" rx="12.5" fill="#B96613" fill-opacity="0.1"/>
<rect x="0.5" y="0.5" width="69" height="24" rx="12" stroke="#EA8826" stroke-opacity="0.5"/>
<path d="M16.4131 17V8.79688C16.4131 8.00391 16.6296 7.40007 17.0625 6.98535C17.4954 6.57064 18.0856 6.36328 18.833 6.36328C18.9788 6.36328 19.127 6.3724 19.2773 6.39062C19.4277 6.40885 19.5713 6.4362 19.708 6.47266L19.6396 7.49805C19.5394 7.47982 19.4323 7.46387 19.3184 7.4502C19.2044 7.43652 19.0882 7.42969 18.9697 7.42969C18.5596 7.42969 18.2428 7.54362 18.0195 7.77148C17.7962 7.99935 17.6846 8.34115 17.6846 8.79688V10.2188V10.3691V17H16.4131ZM15.2441 10.7793V9.80859H16.8916H17.2061H19.2432V10.7793H15.2441ZM19.7559 13.5137V13.2949C19.7559 12.2103 20.0635 11.3239 20.6787 10.6357C21.2939 9.94759 22.1165 9.60352 23.1465 9.60352C24.1764 9.60352 24.999 9.94759 25.6143 10.6357C26.2295 11.3239 26.5371 12.2103 26.5371 13.2949V13.5137C26.5371 14.5983 26.2295 15.4847 25.6143 16.1729C24.999 16.861 24.1764 17.2051 23.1465 17.2051C22.1165 17.2051 21.2939 16.861 20.6787 16.1729C20.0635 15.4847 19.7559 14.5983 19.7559 13.5137ZM21.0547 13.2949V13.5137C21.0547 14.2565 21.2301 14.8854 21.5811 15.4004C21.932 15.9108 22.4538 16.166 23.1465 16.166C23.8392 16.166 24.361 15.9108 24.7119 15.4004C25.0628 14.8854 25.2383 14.2565 25.2383 13.5137V13.2949C25.2383 12.5521 25.0628 11.9255 24.7119 11.415C24.361 10.9001 23.8392 10.6426 23.1465 10.6426C22.4538 10.6426 21.932 10.9001 21.5811 11.415C21.2301 11.9255 21.0547 12.5521 21.0547 13.2949ZM28.1299 17V9.80859H29.2783L29.333 10.7314H29.374C29.5563 10.4307 29.7956 10.1686 30.0918 9.94531C30.388 9.71745 30.7412 9.60352 31.1514 9.60352C31.2516 9.60352 31.3564 9.61491 31.4658 9.6377C31.5752 9.66048 31.6527 9.68099 31.6982 9.69922V10.875C31.6071 10.8568 31.5114 10.8431 31.4111 10.834C31.3109 10.8249 31.2015 10.8203 31.083 10.8203C30.6729 10.8203 30.3242 10.9274 30.0371 11.1416C29.75 11.3558 29.5381 11.6224 29.4014 11.9414V17H28.1299ZM32.915 17V9.80859H34.0635L34.1182 10.7314H34.1592C34.4144 10.4079 34.722 10.1504 35.082 9.95898C35.4466 9.76758 35.8499 9.67188 36.292 9.67188C36.7751 9.67188 37.1921 9.76758 37.543 9.95898C37.8939 10.1504 38.1605 10.4603 38.3428 10.8887H38.3838C38.6846 10.4603 39.0173 10.1504 39.3818 9.95898C39.7464 9.76758 40.1657 9.67188 40.6396 9.67188C41.387 9.67188 41.9704 9.87923 42.3896 10.2939C42.8089 10.7041 43.0186 11.3923 43.0186 12.3584V17H41.7471V12.3447C41.7471 11.7705 41.624 11.3604 41.3779 11.1143C41.1318 10.8636 40.7832 10.7383 40.332 10.7383C39.9401 10.7383 39.596 10.8477 39.2998 11.0664C39.0081 11.2852 38.7757 11.5677 38.6025 11.9141V17H37.3311V12.3447C37.3311 11.7705 37.208 11.3604 36.9619 11.1143C36.7158 10.8636 36.3672 10.7383 35.916 10.7383C35.5241 10.7383 35.18 10.8477 34.8838 11.0664C34.5921 11.2852 34.3597 11.5677 34.1865 11.9141V17H32.915ZM44.5771 14.8809C44.5771 14.1517 44.8665 13.5843 45.4453 13.1787C46.0241 12.7731 46.7601 12.5703 47.6533 12.5703H49.2803V12.0781C49.2803 11.6452 49.1686 11.2943 48.9453 11.0254C48.722 10.752 48.3369 10.6152 47.79 10.6152C47.2432 10.6152 46.8512 10.7292 46.6143 10.957C46.3818 11.1803 46.2656 11.4401 46.2656 11.7363V11.7705H45.001V11.7363C45.001 11.1667 45.2539 10.6699 45.7598 10.2461C46.2702 9.81771 46.9583 9.60352 47.8242 9.60352C48.6901 9.60352 49.36 9.81087 49.834 10.2256C50.3125 10.6403 50.5518 11.2578 50.5518 12.0781V15.3594C50.5518 15.6556 50.5745 15.9359 50.6201 16.2002C50.6657 16.46 50.7295 16.6901 50.8115 16.8906V17H49.5811C49.5173 16.8861 49.458 16.738 49.4033 16.5557C49.3532 16.3734 49.3213 16.1911 49.3076 16.0088C49.139 16.305 48.8656 16.5671 48.4873 16.7949C48.1136 17.0228 47.6305 17.1367 47.0381 17.1367C46.3545 17.1367 45.7734 16.943 45.2949 16.5557C44.8164 16.1683 44.5771 15.61 44.5771 14.8809ZM45.8486 14.8125C45.8486 15.2227 45.9671 15.5439 46.2041 15.7764C46.4411 16.0088 46.8102 16.125 47.3115 16.125C47.8128 16.125 48.2663 15.9518 48.6719 15.6055C49.0775 15.2591 49.2803 14.8923 49.2803 14.5049V13.4727H47.79C47.152 13.4727 46.6689 13.5934 46.3408 13.835C46.0127 14.0765 45.8486 14.4023 45.8486 14.8125ZM52.5889 17V6.5H53.8604V17H52.5889Z" fill="#FF7F00"/>
</svg>
