<svg width="58" height="25" viewBox="0 0 58 25" fill="none" xmlns="http://www.w3.org/2000/svg">
<rect width="58" height="25" rx="12.5" fill="#742525" fill-opacity="0.1"/>
<rect x="0.5" y="0.5" width="57" height="24" rx="12" stroke="#BF4040" stroke-opacity="0.5"/>
<path d="M16.0186 17V6.5H17.29V10.6973C17.5452 10.3874 17.8688 10.139 18.2607 9.95215C18.6527 9.7653 19.0811 9.67188 19.5459 9.67188C20.2158 9.67188 20.765 9.87923 21.1934 10.2939C21.6263 10.7041 21.8428 11.3923 21.8428 12.3584V17H20.5713V12.3447C20.5713 11.7705 20.4414 11.3604 20.1816 11.1143C19.9264 10.8636 19.5618 10.7383 19.0879 10.7383C18.6823 10.7383 18.3245 10.8477 18.0146 11.0664C17.7048 11.2852 17.4632 11.5677 17.29 11.9141V17H16.0186ZM23.4014 14.8809C23.4014 14.1517 23.6908 13.5843 24.2695 13.1787C24.8483 12.7731 25.5843 12.5703 26.4775 12.5703H28.1045V12.0781C28.1045 11.6452 27.9928 11.2943 27.7695 11.0254C27.5462 10.752 27.1611 10.6152 26.6143 10.6152C26.0674 10.6152 25.6755 10.7292 25.4385 10.957C25.2061 11.1803 25.0898 11.4401 25.0898 11.7363V11.7705H23.8252V11.7363C23.8252 11.1667 24.0781 10.6699 24.584 10.2461C25.0944 9.81771 25.7826 9.60352 26.6484 9.60352C27.5143 9.60352 28.1842 9.81087 28.6582 10.2256C29.1367 10.6403 29.376 11.2578 29.376 12.0781V15.3594C29.376 15.6556 29.3988 15.9359 29.4443 16.2002C29.4899 16.46 29.5537 16.6901 29.6357 16.8906V17H28.4053C28.3415 16.8861 28.2822 16.738 28.2275 16.5557C28.1774 16.3734 28.1455 16.1911 28.1318 16.0088C27.9632 16.305 27.6898 16.5671 27.3115 16.7949C26.9378 17.0228 26.4548 17.1367 25.8623 17.1367C25.1787 17.1367 24.5977 16.943 24.1191 16.5557C23.6406 16.1683 23.4014 15.61 23.4014 14.8809ZM24.6729 14.8125C24.6729 15.2227 24.7913 15.5439 25.0283 15.7764C25.2653 16.0088 25.6344 16.125 26.1357 16.125C26.637 16.125 27.0905 15.9518 27.4961 15.6055C27.9017 15.2591 28.1045 14.8923 28.1045 14.5049V13.4727H26.6143C25.9762 13.4727 25.4932 13.5934 25.165 13.835C24.8369 14.0765 24.6729 14.4023 24.6729 14.8125ZM31.3584 17V9.80859H32.5068L32.5615 10.7314H32.6025C32.7848 10.4307 33.0241 10.1686 33.3203 9.94531C33.6165 9.71745 33.9697 9.60352 34.3799 9.60352C34.4801 9.60352 34.585 9.61491 34.6943 9.6377C34.8037 9.66048 34.8812 9.68099 34.9268 9.69922V10.875C34.8356 10.8568 34.7399 10.8431 34.6396 10.834C34.5394 10.8249 34.43 10.8203 34.3115 10.8203C33.9014 10.8203 33.5527 10.9274 33.2656 11.1416C32.9785 11.3558 32.7666 11.6224 32.6299 11.9414V17H31.3584ZM35.5762 13.5137V13.2949C35.5762 12.2467 35.8496 11.3809 36.3965 10.6973C36.9434 10.0137 37.6725 9.67188 38.584 9.67188C39.0853 9.67188 39.5114 9.76302 39.8623 9.94531C40.2178 10.123 40.5003 10.36 40.71 10.6562V6.5H41.9814V17H40.833L40.7783 16.0635H40.7373C40.555 16.3597 40.2747 16.6126 39.8965 16.8223C39.5228 17.0319 39.0853 17.1367 38.584 17.1367C37.6725 17.1367 36.9434 16.7949 36.3965 16.1113C35.8496 15.4277 35.5762 14.5618 35.5762 13.5137ZM36.875 13.5137C36.875 14.2428 37.0345 14.8558 37.3535 15.3525C37.6725 15.8493 38.1738 16.0977 38.8574 16.0977C39.3132 16.0977 39.7005 15.9723 40.0195 15.7217C40.3385 15.471 40.5687 15.1862 40.71 14.8672V11.9414C40.5687 11.6224 40.3385 11.3376 40.0195 11.0869C39.7005 10.8363 39.3132 10.7109 38.8574 10.7109C38.1738 10.7109 37.6725 10.9593 37.3535 11.4561C37.0345 11.9528 36.875 12.5658 36.875 13.2949V13.5137Z" fill="#BF4040"/>
</svg>
