<svg width="74" height="25" viewBox="0 0 74 25" fill="none" xmlns="http://www.w3.org/2000/svg">
<rect width="74" height="25" rx="12.5" fill="#618A0E" fill-opacity="0.1"/>
<rect x="0.5" y="0.5" width="73" height="24" rx="12" stroke="#95BF40" stroke-opacity="0.5"/>
<path d="M16.2461 17V9.80859H17.3945L17.4492 10.7314H17.4902C17.75 10.4033 18.0667 10.1458 18.4404 9.95898C18.8187 9.76758 19.2357 9.67188 19.6914 9.67188C20.416 9.67188 20.9925 9.87923 21.4209 10.2939C21.8538 10.7041 22.0703 11.3923 22.0703 12.3584V17H20.7988V12.3447C20.7988 11.7705 20.6689 11.3604 20.4092 11.1143C20.154 10.8636 19.7894 10.7383 19.3154 10.7383C18.9098 10.7383 18.5521 10.8477 18.2422 11.0664C17.9323 11.2852 17.6908 11.5677 17.5176 11.9141V17H16.2461ZM23.5947 13.5137V13.2949C23.5947 12.2103 23.9023 11.3239 24.5176 10.6357C25.1328 9.94759 25.9554 9.60352 26.9854 9.60352C28.0153 9.60352 28.8379 9.94759 29.4531 10.6357C30.0684 11.3239 30.376 12.2103 30.376 13.2949V13.5137C30.376 14.5983 30.0684 15.4847 29.4531 16.1729C28.8379 16.861 28.0153 17.2051 26.9854 17.2051C25.9554 17.2051 25.1328 16.861 24.5176 16.1729C23.9023 15.4847 23.5947 14.5983 23.5947 13.5137ZM24.8936 13.2949V13.5137C24.8936 14.2565 25.069 14.8854 25.4199 15.4004C25.7708 15.9108 26.2926 16.166 26.9854 16.166C27.6781 16.166 28.1999 15.9108 28.5508 15.4004C28.9017 14.8854 29.0771 14.2565 29.0771 13.5137V13.2949C29.0771 12.5521 28.9017 11.9255 28.5508 11.415C28.1999 10.9001 27.6781 10.6426 26.9854 10.6426C26.2926 10.6426 25.7708 10.9001 25.4199 11.415C25.069 11.9255 24.8936 12.5521 24.8936 13.2949ZM31.9688 17V9.80859H33.1172L33.1719 10.7314H33.2129C33.3952 10.4307 33.6344 10.1686 33.9307 9.94531C34.2269 9.71745 34.5801 9.60352 34.9902 9.60352C35.0905 9.60352 35.1953 9.61491 35.3047 9.6377C35.4141 9.66048 35.4915 9.68099 35.5371 9.69922V10.875C35.446 10.8568 35.3503 10.8431 35.25 10.834C35.1497 10.8249 35.0404 10.8203 34.9219 10.8203C34.5117 10.8203 34.1631 10.9274 33.876 11.1416C33.5889 11.3558 33.377 11.6224 33.2402 11.9414V17H31.9688ZM36.7539 17V9.80859H37.9023L37.957 10.7314H37.998C38.2533 10.4079 38.5609 10.1504 38.9209 9.95898C39.2855 9.76758 39.6888 9.67188 40.1309 9.67188C40.6139 9.67188 41.0309 9.76758 41.3818 9.95898C41.7327 10.1504 41.9993 10.4603 42.1816 10.8887H42.2227C42.5234 10.4603 42.8561 10.1504 43.2207 9.95898C43.5853 9.76758 44.0046 9.67188 44.4785 9.67188C45.2259 9.67188 45.8092 9.87923 46.2285 10.2939C46.6478 10.7041 46.8574 11.3923 46.8574 12.3584V17H45.5859V12.3447C45.5859 11.7705 45.4629 11.3604 45.2168 11.1143C44.9707 10.8636 44.6221 10.7383 44.1709 10.7383C43.779 10.7383 43.4349 10.8477 43.1387 11.0664C42.847 11.2852 42.6146 11.5677 42.4414 11.9141V17H41.1699V12.3447C41.1699 11.7705 41.0469 11.3604 40.8008 11.1143C40.5547 10.8636 40.2061 10.7383 39.7549 10.7383C39.363 10.7383 39.0189 10.8477 38.7227 11.0664C38.431 11.2852 38.1986 11.5677 38.0254 11.9141V17H36.7539ZM48.416 14.8809C48.416 14.1517 48.7054 13.5843 49.2842 13.1787C49.863 12.7731 50.599 12.5703 51.4922 12.5703H53.1191V12.0781C53.1191 11.6452 53.0075 11.2943 52.7842 11.0254C52.5609 10.752 52.1758 10.6152 51.6289 10.6152C51.082 10.6152 50.6901 10.7292 50.4531 10.957C50.2207 11.1803 50.1045 11.4401 50.1045 11.7363V11.7705H48.8398V11.7363C48.8398 11.1667 49.0928 10.6699 49.5986 10.2461C50.109 9.81771 50.7972 9.60352 51.6631 9.60352C52.529 9.60352 53.1989 9.81087 53.6729 10.2256C54.1514 10.6403 54.3906 11.2578 54.3906 12.0781V15.3594C54.3906 15.6556 54.4134 15.9359 54.459 16.2002C54.5046 16.46 54.5684 16.6901 54.6504 16.8906V17H53.4199C53.3561 16.8861 53.2969 16.738 53.2422 16.5557C53.1921 16.3734 53.1602 16.1911 53.1465 16.0088C52.9779 16.305 52.7044 16.5671 52.3262 16.7949C51.9525 17.0228 51.4694 17.1367 50.877 17.1367C50.1934 17.1367 49.6123 16.943 49.1338 16.5557C48.6553 16.1683 48.416 15.61 48.416 14.8809ZM49.6875 14.8125C49.6875 15.2227 49.806 15.5439 50.043 15.7764C50.2799 16.0088 50.6491 16.125 51.1504 16.125C51.6517 16.125 52.1051 15.9518 52.5107 15.6055C52.9163 15.2591 53.1191 14.8923 53.1191 14.5049V13.4727H51.6289C50.9909 13.4727 50.5078 13.5934 50.1797 13.835C49.8516 14.0765 49.6875 14.4023 49.6875 14.8125ZM56.4277 17V6.5H57.6992V17H56.4277Z" fill="#95BF40"/>
</svg>
