<svg width="82" height="25" viewBox="0 0 82 25" fill="none" xmlns="http://www.w3.org/2000/svg">
<rect width="82" height="25" rx="12.5" fill="#0E8A8A" fill-opacity="0.1"/>
<rect x="0.5" y="0.5" width="81" height="24" rx="12" stroke="#40BFBF" stroke-opacity="0.5"/>
<path d="M16.5479 17V9.80859H17.8193V17H16.5479ZM16.3906 7.63477C16.3906 7.42057 16.459 7.24056 16.5957 7.09473C16.7324 6.94889 16.9284 6.87598 17.1836 6.87598C17.4388 6.87598 17.6348 6.94889 17.7715 7.09473C17.9082 7.24056 17.9766 7.42057 17.9766 7.63477C17.9766 7.84896 17.9082 8.02897 17.7715 8.1748C17.6348 8.32064 17.4388 8.39355 17.1836 8.39355C16.9284 8.39355 16.7324 8.32064 16.5957 8.1748C16.459 8.02897 16.3906 7.84896 16.3906 7.63477ZM19.9043 17V9.80859H21.0527L21.1074 10.7314H21.1484C21.4082 10.4033 21.7249 10.1458 22.0986 9.95898C22.4769 9.76758 22.8939 9.67188 23.3496 9.67188C24.0742 9.67188 24.6507 9.87923 25.0791 10.2939C25.512 10.7041 25.7285 11.3923 25.7285 12.3584V17H24.457V12.3447C24.457 11.7705 24.3271 11.3604 24.0674 11.1143C23.8122 10.8636 23.4476 10.7383 22.9736 10.7383C22.568 10.7383 22.2103 10.8477 21.9004 11.0664C21.5905 11.2852 21.349 11.5677 21.1758 11.9141V17H19.9043ZM28.0117 17V8.79688C28.0117 8.00391 28.2282 7.40007 28.6611 6.98535C29.0941 6.57064 29.6842 6.36328 30.4316 6.36328C30.5775 6.36328 30.7256 6.3724 30.876 6.39062C31.0264 6.40885 31.1699 6.4362 31.3066 6.47266L31.2383 7.49805C31.138 7.47982 31.0309 7.46387 30.917 7.4502C30.8031 7.43652 30.6868 7.42969 30.5684 7.42969C30.1582 7.42969 29.8415 7.54362 29.6182 7.77148C29.3949 7.99935 29.2832 8.34115 29.2832 8.79688V10.2188V10.3691V17H28.0117ZM26.8428 10.7793V9.80859H28.4902H28.8047H30.8418V10.7793H26.8428ZM31.3545 13.5137V13.2949C31.3545 12.2103 31.6621 11.3239 32.2773 10.6357C32.8926 9.94759 33.7152 9.60352 34.7451 9.60352C35.7751 9.60352 36.5977 9.94759 37.2129 10.6357C37.8281 11.3239 38.1357 12.2103 38.1357 13.2949V13.5137C38.1357 14.5983 37.8281 15.4847 37.2129 16.1729C36.5977 16.861 35.7751 17.2051 34.7451 17.2051C33.7152 17.2051 32.8926 16.861 32.2773 16.1729C31.6621 15.4847 31.3545 14.5983 31.3545 13.5137ZM32.6533 13.2949V13.5137C32.6533 14.2565 32.8288 14.8854 33.1797 15.4004C33.5306 15.9108 34.0524 16.166 34.7451 16.166C35.4378 16.166 35.9596 15.9108 36.3105 15.4004C36.6615 14.8854 36.8369 14.2565 36.8369 13.5137V13.2949C36.8369 12.5521 36.6615 11.9255 36.3105 11.415C35.9596 10.9001 35.4378 10.6426 34.7451 10.6426C34.0524 10.6426 33.5306 10.9001 33.1797 11.415C32.8288 11.9255 32.6533 12.5521 32.6533 13.2949ZM39.7285 17V9.80859H40.877L40.9316 10.7314H40.9727C41.1549 10.4307 41.3942 10.1686 41.6904 9.94531C41.9867 9.71745 42.3398 9.60352 42.75 9.60352C42.8503 9.60352 42.9551 9.61491 43.0645 9.6377C43.1738 9.66048 43.2513 9.68099 43.2969 9.69922V10.875C43.2057 10.8568 43.11 10.8431 43.0098 10.834C42.9095 10.8249 42.8001 10.8203 42.6816 10.8203C42.2715 10.8203 41.9229 10.9274 41.6357 11.1416C41.3486 11.3558 41.1367 11.6224 41 11.9414V17H39.7285ZM44.5137 17V9.80859H45.6621L45.7168 10.7314H45.7578C46.013 10.4079 46.3206 10.1504 46.6807 9.95898C47.0452 9.76758 47.4486 9.67188 47.8906 9.67188C48.3737 9.67188 48.7907 9.76758 49.1416 9.95898C49.4925 10.1504 49.7591 10.4603 49.9414 10.8887H49.9824C50.2832 10.4603 50.6159 10.1504 50.9805 9.95898C51.3451 9.76758 51.7643 9.67188 52.2383 9.67188C52.9857 9.67188 53.569 9.87923 53.9883 10.2939C54.4076 10.7041 54.6172 11.3923 54.6172 12.3584V17H53.3457V12.3447C53.3457 11.7705 53.2227 11.3604 52.9766 11.1143C52.7305 10.8636 52.3818 10.7383 51.9307 10.7383C51.5387 10.7383 51.1947 10.8477 50.8984 11.0664C50.6068 11.2852 50.3743 11.5677 50.2012 11.9141V17H48.9297V12.3447C48.9297 11.7705 48.8066 11.3604 48.5605 11.1143C48.3145 10.8636 47.9658 10.7383 47.5146 10.7383C47.1227 10.7383 46.7786 10.8477 46.4824 11.0664C46.1908 11.2852 45.9583 11.5677 45.7852 11.9141V17H44.5137ZM56.1758 14.8809C56.1758 14.1517 56.4652 13.5843 57.0439 13.1787C57.6227 12.7731 58.3587 12.5703 59.252 12.5703H60.8789V12.0781C60.8789 11.6452 60.7673 11.2943 60.5439 11.0254C60.3206 10.752 59.9355 10.6152 59.3887 10.6152C58.8418 10.6152 58.4499 10.7292 58.2129 10.957C57.9805 11.1803 57.8643 11.4401 57.8643 11.7363V11.7705H56.5996V11.7363C56.5996 11.1667 56.8525 10.6699 57.3584 10.2461C57.8688 9.81771 58.557 9.60352 59.4229 9.60352C60.2887 9.60352 60.9587 9.81087 61.4326 10.2256C61.9111 10.6403 62.1504 11.2578 62.1504 12.0781V15.3594C62.1504 15.6556 62.1732 15.9359 62.2188 16.2002C62.2643 16.46 62.3281 16.6901 62.4102 16.8906V17H61.1797C61.1159 16.8861 61.0566 16.738 61.002 16.5557C60.9518 16.3734 60.9199 16.1911 60.9062 16.0088C60.7376 16.305 60.4642 16.5671 60.0859 16.7949C59.7122 17.0228 59.2292 17.1367 58.6367 17.1367C57.9531 17.1367 57.3721 16.943 56.8936 16.5557C56.415 16.1683 56.1758 15.61 56.1758 14.8809ZM57.4473 14.8125C57.4473 15.2227 57.5658 15.5439 57.8027 15.7764C58.0397 16.0088 58.4089 16.125 58.9102 16.125C59.4115 16.125 59.8649 15.9518 60.2705 15.6055C60.6761 15.2591 60.8789 14.8923 60.8789 14.5049V13.4727H59.3887C58.7507 13.4727 58.2676 13.5934 57.9395 13.835C57.6113 14.0765 57.4473 14.4023 57.4473 14.8125ZM64.1875 17V6.5H65.459V17H64.1875Z" fill="#40BFBF"/>
</svg>
